<svg width="30" height="30" viewBox="0 0 30 30" fill="none" xmlns="http://www.w3.org/2000/svg">
<path d="M15 13C14.8589 13 14.7178 12.9702 14.5864 12.9102L3.58643 7.91016C3.229 7.74805 3 7.39209 3 7C3 6.60791 3.229 6.25195 3.58643 6.08984L14.5864 1.08984C14.8491 0.969727 15.1509 0.969727 15.4136 1.08984L26.4136 6.08984C26.771 6.25195 27 6.60791 27 7C27 7.39209 26.771 7.74805 26.4136 7.91016L15.4136 12.9102C15.2822 12.9702 15.1411 13 15 13ZM6.4165 7L15 10.9014L23.5835 7L15 3.09863L6.4165 7Z" fill="black"/>
<path d="M13 29C12.8594 29 12.7183 28.9702 12.5864 28.9102L1.58643 23.9102C1.229 23.748 1 23.3921 1 23V11C1 10.6602 1.17285 10.3433 1.4585 10.1592C1.74512 9.97558 2.10547 9.9497 2.41357 10.0898L13.4136 15.0898C13.771 15.252 14 15.6079 14 16V28C14 28.3398 13.8271 28.6567 13.5415 28.8408C13.3774 28.9463 13.189 29 13 29ZM3 22.356L12 26.4468V16.644L3 12.5532V22.356Z" fill="black"/>
<path d="M17 29C16.811 29 16.6226 28.9463 16.4585 28.8408C16.1729 28.6567 16 28.3398 16 28V16C16 15.6079 16.229 15.252 16.5864 15.0898L27.5864 10.0898C27.895 9.94922 28.2554 9.97461 28.5415 10.1592C28.8271 10.3433 29 10.6602 29 11V23C29 23.3921 28.771 23.748 28.4136 23.9102L17.4136 28.9102C17.2817 28.9702 17.1406 29 17 29ZM18 16.644V26.4468L27 22.356V12.5532L18 16.644Z" fill="black"/>
</svg>
