<svg xmlns="http://www.w3.org/2000/svg" xmlns:xlink="http://www.w3.org/1999/xlink" width="594" height="417.33" viewBox="0 0 594 417.33"><defs><linearGradient id="930b3c5f-56b8-4398-84c5-c36e28eab3fe" x1="390.27" y1="53.7" x2="390.27" y2="239.99" gradientUnits="userSpaceOnUse"><stop offset="0.05" stop-color="#00c1d5" stop-opacity="0"/><stop offset="0.1" stop-color="#00c1d5" stop-opacity="0.05"/><stop offset="0.28" stop-color="#00c1d5" stop-opacity="0.18"/><stop offset="0.43" stop-color="#00c1d5" stop-opacity="0.27"/><stop offset="0.54" stop-color="#00c1d5" stop-opacity="0.3"/><stop offset="0.64" stop-color="#00c1d5" stop-opacity="0.27"/><stop offset="0.78" stop-color="#00c1d5" stop-opacity="0.19"/><stop offset="0.95" stop-color="#00c1d5" stop-opacity="0.05"/><stop offset="1" stop-color="#00c1d5" stop-opacity="0"/></linearGradient><linearGradient id="f08b6912-8d75-4e75-adc4-f3cb434cee4e" x1="423.17" y1="97.42" x2="423.17" y2="294.69" gradientUnits="userSpaceOnUse"><stop offset="0.09" stop-color="#0062b8" stop-opacity="0"/><stop offset="0.54" stop-color="#0e8ae8" stop-opacity="0.3"/><stop offset="0.82" stop-color="#0673cc" stop-opacity="0.12"/><stop offset="1" stop-color="#0062b8" stop-opacity="0"/></linearGradient><linearGradient id="73d7dffc-0212-4143-9dfd-362d0bd89172" x1="308.02" y1="321.69" x2="308.02" y2="275.68" gradientUnits="userSpaceOnUse"><stop offset="0" stop-color="#1c599e" stop-opacity="0"/><stop offset="1" stop-color="#1c599e" stop-opacity="0.8"/></linearGradient><linearGradient id="51e2b6a2-8fab-46b6-a9e7-c3c6573ad26b" x1="454.68" y1="274.69" x2="454.68" y2="347.44" gradientUnits="userSpaceOnUse"><stop offset="0" stop-color="#1c599e" stop-opacity="0.8"/><stop offset="0" stop-color="#1c599e" stop-opacity="0.76"/><stop offset="0" stop-color="#1c599e" stop-opacity="0.75"/><stop offset="0.08" stop-color="#1c599e" stop-opacity="0.66"/><stop offset="0.37" stop-color="#1c599e" stop-opacity="0.38"/><stop offset="0.64" stop-color="#1c599e" stop-opacity="0.17"/><stop offset="0.85" stop-color="#1c599e" stop-opacity="0.05"/><stop offset="1" stop-color="#1c599e" stop-opacity="0"/></linearGradient><linearGradient id="f630d62b-5163-479a-a5c1-c64e8f6870f9" x1="209.34" y1="341.69" x2="209.34" y2="281.49" gradientUnits="userSpaceOnUse"><stop offset="0" stop-color="#1c599e" stop-opacity="0"/><stop offset="0.15" stop-color="#1c599e" stop-opacity="0.05"/><stop offset="0.36" stop-color="#1c599e" stop-opacity="0.17"/><stop offset="0.63" stop-color="#1c599e" stop-opacity="0.38"/><stop offset="0.92" stop-color="#1c599e" stop-opacity="0.66"/><stop offset="1" stop-color="#1c599e" stop-opacity="0.75"/><stop offset="1" stop-color="#1c599e" stop-opacity="0.76"/><stop offset="1" stop-color="#1c599e" stop-opacity="0.8"/></linearGradient><linearGradient id="da473498-5f2c-4e62-bc09-536c2816103c" x1="86.14" y1="178.4" x2="86.14" y2="216.12" gradientUnits="userSpaceOnUse"><stop offset="0.3" stop-color="#00c1d5"/><stop offset="0.6" stop-color="#00abd7"/><stop offset="1" stop-color="#0091da"/></linearGradient><linearGradient id="cc9be1cb-5e88-4af1-a9ee-a245d341a1ff" x1="105.34" y1="220.03" x2="105.34" y2="279.36" gradientUnits="userSpaceOnUse"><stop offset="0.05" stop-color="#1f54aa"/><stop offset="0.25" stop-color="#1c5baf"/><stop offset="0.54" stop-color="#126ebe"/><stop offset="0.89" stop-color="#028dd7"/><stop offset="0.93" stop-color="#0091da"/></linearGradient><linearGradient id="06fd53ed-84f9-4f43-9337-672d0d501f04" x1="92.22" y1="220.03" x2="92.22" y2="279.36" xlink:href="#cc9be1cb-5e88-4af1-a9ee-a245d341a1ff"/><linearGradient id="5da15f41-8b67-4142-ac13-feb53f77db3b" x1="81.97" y1="332.69" x2="81.97" y2="398.78" gradientUnits="userSpaceOnUse"><stop offset="0.11" stop-color="#0091da"/><stop offset="0.2" stop-color="#0091da" stop-opacity="0.97"/><stop offset="0.33" stop-color="#0091da" stop-opacity="0.88"/><stop offset="0.48" stop-color="#0091da" stop-opacity="0.74"/><stop offset="0.64" stop-color="#0091da" stop-opacity="0.54"/><stop offset="0.82" stop-color="#0091da" stop-opacity="0.29"/><stop offset="1" stop-color="#0091da" stop-opacity="0"/></linearGradient><linearGradient id="532928f7-e600-4e1b-801f-e55d6fc09830" x1="56.03" y1="214.19" x2="56.03" y2="264.12" xlink:href="#cc9be1cb-5e88-4af1-a9ee-a245d341a1ff"/><linearGradient id="252da24d-b2fb-45d8-b142-33a79fc6528a" x1="41.17" y1="214.19" x2="41.17" y2="264.12" xlink:href="#cc9be1cb-5e88-4af1-a9ee-a245d341a1ff"/><linearGradient id="3677651f-4165-4b2c-8713-83bc75764a98" x1="40.67" y1="162.19" x2="40.67" y2="183.48" xlink:href="#cc9be1cb-5e88-4af1-a9ee-a245d341a1ff"/><linearGradient id="e9d66009-3c71-4337-a702-95042453094b" x1="36.15" y1="162.19" x2="36.15" y2="183.48" xlink:href="#cc9be1cb-5e88-4af1-a9ee-a245d341a1ff"/></defs><title>dark final</title><g id="d3b358d7-16e4-4a2c-bcfa-ad77ca74db7d" data-name="Layer 3"><polygon points="591.72 53.7 405.43 239.99 188.83 239.99 374.4 54.41 591.72 53.7" opacity="0.6" fill="url(#930b3c5f-56b8-4398-84c5-c36e28eab3fe)"/><polygon points="590.55 97.42 364.59 323.39 255.79 323.39 481.23 97.95 590.55 97.42" fill="url(#f08b6912-8d75-4e75-adc4-f3cb434cee4e)"/><line x1="325.64" y1="187.54" x2="366.73" y2="146.45" fill="none" stroke="#1c7d91" stroke-miterlimit="10" stroke-width="1.78"/><line x1="242.58" y1="138.79" x2="266.92" y2="119.1" fill="none" stroke="#1f54aa" stroke-linecap="round" stroke-linejoin="round" stroke-width="2.52"/><path d="M264.5,113c0,1.57.21,2.61,2.26,3.92s1.37,2.9.93,3.34-2.26,1.16-3.94-2c-1.11-2.1-4-1.07-3.81-.53s1.47.29,2.65,3.53,5.56,3.7,7.75,1.52a4.38,4.38,0,0,0-.35-6.47c-2-1.67-2.64-3.14-2.25-4S264.5,113,264.5,113Z" fill="#0091da"/><line x1="266.92" y1="119.1" x2="289.17" y2="138.79" fill="none" stroke="#1f54aa" stroke-linecap="round" stroke-linejoin="round" stroke-width="2.52"/><rect x="473.45" y="196.19" width="77.48" height="44.72" fill="none" stroke="#1c7d91" stroke-miterlimit="10" stroke-width="1.78"/><rect x="473.45" y="204.05" width="77.48" height="29.93" fill="none" stroke="#1c7d91" stroke-miterlimit="10" stroke-width="1.78"/><line x1="440.71" y1="240.91" x2="563.26" y2="240.91" fill="none" stroke="#1c7d91" stroke-miterlimit="10" stroke-width="1.78"/><line x1="473.45" y1="204.05" x2="550.93" y2="204.05" fill="none" stroke="#1c7d91" stroke-miterlimit="10" stroke-width="1.78"/><line x1="455.89" y1="214.03" x2="550.93" y2="214.03" fill="none" stroke="#1c7d91" stroke-miterlimit="10" stroke-width="1.78"/><line x1="455.89" y1="224" x2="550.93" y2="224" fill="none" stroke="#1c7d91" stroke-miterlimit="10" stroke-width="1.78"/><line x1="455.89" y1="233.98" x2="550.93" y2="233.98" fill="none" stroke="#1c7d91" stroke-miterlimit="10" stroke-width="1.78"/><rect x="491.17" y="183.43" width="28.63" height="57.48" fill="none" stroke="#1c7d91" stroke-miterlimit="10" stroke-width="1.78"/><line x1="491.17" y1="233.98" x2="519.8" y2="233.98" fill="none" stroke="#1c7d91" stroke-miterlimit="10" stroke-width="1.78"/><path d="M181.15,276.18a68.09,68.09,0,0,1,39.72,12.72V190.66H171.71v86.18A70,70,0,0,1,181.15,276.18Z" fill="#0091da"/><circle cx="180.31" cy="199.56" r="2.02" fill="#d6f25c"/><line x1="171.71" y1="217.35" x2="220.87" y2="217.35" fill="none" stroke="#244076" stroke-miterlimit="10" stroke-width="2.9"/><line x1="171.71" y1="229.21" x2="220.87" y2="229.21" fill="none" stroke="#244076" stroke-miterlimit="10" stroke-width="2.9"/><line x1="171.71" y1="241.07" x2="220.87" y2="241.07" fill="none" stroke="#244076" stroke-miterlimit="10" stroke-width="2.9"/><line x1="171.71" y1="252.93" x2="220.87" y2="252.93" fill="none" stroke="#244076" stroke-miterlimit="10" stroke-width="2.9"/><line x1="171.71" y1="264.79" x2="220.87" y2="264.79" fill="none" stroke="#244076" stroke-miterlimit="10" stroke-width="2.9"/><rect x="241.3" y="137.51" width="49.15" height="119.71" fill="#0091da"/><rect x="241.3" y="239.85" width="49.15" height="17.37" fill="#1d428a"/><circle cx="249.9" cy="146.41" r="2.02" fill="#d6f25c"/><line x1="241.3" y1="164.2" x2="290.45" y2="164.2" fill="none" stroke="#244076" stroke-miterlimit="10" stroke-width="2.9"/><line x1="241.3" y1="176.06" x2="290.45" y2="176.06" fill="none" stroke="#244076" stroke-miterlimit="10" stroke-width="2.9"/><line x1="241.3" y1="187.92" x2="290.45" y2="187.92" fill="none" stroke="#244076" stroke-miterlimit="10" stroke-width="2.9"/><line x1="241.3" y1="199.78" x2="290.45" y2="199.78" fill="none" stroke="#244076" stroke-miterlimit="10" stroke-width="2.9"/><line x1="241.3" y1="211.64" x2="290.45" y2="211.64" fill="none" stroke="#244076" stroke-miterlimit="10" stroke-width="2.9"/><line x1="241.3" y1="223.5" x2="290.45" y2="223.5" fill="none" stroke="#244076" stroke-miterlimit="10" stroke-width="2.9"/><path d="M308,273.49a49.08,49.08,0,0,0-49.09,49.08H357.1A49.08,49.08,0,0,0,308,273.49Z" fill-rule="evenodd" opacity="0.7" fill="url(#73d7dffc-0212-4143-9dfd-362d0bd89172)"/><line x1="261.31" y1="103.22" x2="257.4" y2="51.05" fill="none" stroke="#1f54aa" stroke-miterlimit="10" stroke-width="2.52"/><path d="M380.26,217.69a12.89,12.89,0,1,1-5.32-17.42A12.89,12.89,0,0,1,380.26,217.69Z" fill="#0091da"/><path d="M396.63,311.57c.45,0,.9,0,1.35,0l-25.37-100-6.56,1.66,25,98.58A48.68,48.68,0,0,1,396.63,311.57Z" fill="#0091da"/><path d="M444.89,288.89,272.41,46.29l-13.74,7L433,298.49A74.81,74.81,0,0,1,444.89,288.89Z" fill="#0091da"/><line x1="271.33" y1="103.65" x2="275.6" y2="50.45" fill="none" stroke="#1f54aa" stroke-miterlimit="10" stroke-width="2.52"/><path d="M275.82,54.7a10.66,10.66,0,1,1-4.39-14.42A10.66,10.66,0,0,1,275.82,54.7Z" fill="#1f54aa"/><path d="M270.89,52.07a5.07,5.07,0,1,1-2.09-6.85A5.08,5.08,0,0,1,270.89,52.07Z" fill="#0091da"/><path d="M272.16,105.6a6.43,6.43,0,1,1-2.65-8.7A6.42,6.42,0,0,1,272.16,105.6Z" fill="#0091da"/><polygon points="272.01 113.48 260.97 113.48 260.06 102.18 272.91 102.18 272.01 113.48" fill="#0091da"/><g opacity="0.7"><path d="M396.63,311.57a47.28,47.28,0,0,1,22.59,5.71,74.29,74.29,0,0,1,140.38,34H349.75A47.54,47.54,0,0,1,396.63,311.57Z" fill-rule="evenodd" fill="url(#51e2b6a2-8fab-46b6-a9e7-c3c6573ad26b)"/></g><path d="M366.7,81.88h63.9V99.57H366.7Zm0,41.49h63.9V105.68H366.7Zm0,23.8h63.9V129.49H366.7Z" fill="none" stroke="#1c7d91" stroke-miterlimit="10" stroke-width="1.78"/><line x1="369.54" y1="99.57" x2="369.54" y2="105.68" fill="none" stroke="#1c7d91" stroke-miterlimit="10" stroke-width="1.78"/><line x1="427.77" y1="99.57" x2="427.77" y2="105.68" fill="none" stroke="#1c7d91" stroke-miterlimit="10" stroke-width="1.78"/><line x1="369.54" y1="123.37" x2="369.54" y2="129.49" fill="none" stroke="#1c7d91" stroke-miterlimit="10" stroke-width="1.78"/><line x1="427.77" y1="123.37" x2="427.77" y2="129.49" fill="none" stroke="#1c7d91" stroke-miterlimit="10" stroke-width="1.78"/><circle cx="179.89" cy="92.84" r="44.67" fill="none" stroke="#1c7d91" stroke-miterlimit="10" stroke-width="1.78"/><path d="M135.84,85.26S154.9,101.2,196.37,101" fill="none" stroke="#1c7d91" stroke-miterlimit="10" stroke-width="1.78"/><path d="M158.87,78.29s-14.44.74-23,5.44" fill="none" stroke="#1c7d91" stroke-miterlimit="10" stroke-width="1.78"/><path d="M204,54.64a44.69,44.69,0,0,1-40.61,63.3l-1.12,0" fill="none" stroke="#1c7d91" stroke-miterlimit="10" stroke-width="1.78"/><path d="M208.11,128.15a59.32,59.32,0,0,1-7.76-4,60.31,60.31,0,0,1-23.8-76" fill="none" stroke="#1c7d91" stroke-miterlimit="10" stroke-width="1.78"/><path d="M172.45,69.93A60.4,60.4,0,0,1,223.6,96.87" fill="none" stroke="#1c7d91" stroke-miterlimit="10" stroke-width="1.78"/><path d="M205.26,113a83.41,83.41,0,0,1,3,13.77" fill="none" stroke="#1c7d91" stroke-miterlimit="10" stroke-width="1.78"/><circle cx="204.33" cy="55.49" r="3.34" fill="#1c7d91"/><circle cx="198.29" cy="100.83" r="3.08" fill="#1c7d91"/><circle cx="162.31" cy="117.78" r="3.44" fill="#1c7d91"/><circle cx="170.61" cy="69.98" r="3.29" fill="#1c7d91"/><circle cx="224.22" cy="97.99" r="3.34" fill="#1c7d91"/><circle cx="135" cy="84.57" r="4.1" fill="#1c7d91"/><circle cx="158.87" cy="78.29" r="2.66" fill="#1c7d91"/><circle cx="205.26" cy="112.99" r="2.66" fill="#1c7d91"/><circle cx="207.67" cy="127.83" r="3.41" fill="#1c7d91"/><circle cx="455.89" cy="55.41" r="14.91" fill="none" stroke="#1c7d91" stroke-miterlimit="10" stroke-width="1.78"/><line x1="330.58" y1="55.59" x2="447.15" y2="55.59" fill="none" stroke="#1c7d91" stroke-miterlimit="10" stroke-width="1.78"/><circle cx="455.89" cy="55.59" r="8.55" fill="none" stroke="#1c7d91" stroke-miterlimit="10" stroke-width="1.78"/><circle cx="322.03" cy="55.59" r="8.55" fill="none" stroke="#1c7d91" stroke-miterlimit="10" stroke-width="1.78"/><line x1="455.89" y1="70.32" x2="455.89" y2="240.91" fill="none" stroke="#1c7d91" stroke-miterlimit="10" stroke-width="1.78"/><circle cx="322.03" cy="240.91" r="11.62" fill="none" stroke="#1c7d91" stroke-miterlimit="10" stroke-width="1.78"/><line x1="322.03" y1="229.29" x2="322.03" y2="196.07" fill="none" stroke="#1c7d91" stroke-miterlimit="10" stroke-width="1.78"/><circle cx="322.03" cy="191.15" r="4.89" fill="none" stroke="#1c7d91" stroke-miterlimit="10" stroke-width="1.78"/><circle cx="550.93" cy="171.77" r="10.02" fill="none" stroke="#1c7d91" stroke-miterlimit="10" stroke-width="1.78"/><line x1="219.46" y1="162.91" x2="150.33" y2="162.91" fill="none" stroke="#1c7d91" stroke-miterlimit="10" stroke-width="1.78"/><polyline points="211.35 154.79 219.46 162.91 211.35 171.02" fill="none" stroke="#1c7d91" stroke-miterlimit="10" stroke-width="1.78"/><line x1="235.67" y1="49.69" x2="235.67" y2="9.65" fill="none" stroke="#1c7d91" stroke-miterlimit="10" stroke-width="1.78"/><polyline points="243.78 41.58 235.67 49.69 227.56 41.58" fill="none" stroke="#1c7d91" stroke-miterlimit="10" stroke-width="1.78"/><line x1="480.45" y1="137.74" x2="529.33" y2="88.85" fill="none" stroke="#1c7d91" stroke-miterlimit="10" stroke-width="1.78"/><polyline points="491.92 137.74 480.45 137.74 480.45 126.27" fill="none" stroke="#1c7d91" stroke-miterlimit="10" stroke-width="1.78"/><polyline points="439.44 223.53 398.65 182.74 398.65 160.53" fill="none" stroke="#1c7d91" stroke-miterlimit="10" stroke-width="1.78"/><polyline points="439.44 212.05 439.44 223.53 427.97 223.53" fill="none" stroke="#1c7d91" stroke-miterlimit="10" stroke-width="1.78"/><path d="M262.77,308.06a43.56,43.56,0,0,0-20.8,5.25,68.38,68.38,0,0,0-129.2,31.25H305.91A43.76,43.76,0,0,0,262.77,308.06Z" fill-rule="evenodd" opacity="0.7" fill="url(#f630d62b-5163-479a-a5c1-c64e8f6870f9)"/><path d="M181.15,276.18a68.47,68.47,0,0,1,16.12,1.92h23.6v-2.9H171.71v1.64A70,70,0,0,1,181.15,276.18Z" fill="#1d428a"/><path d="M118.11,164.39s-4-3.86-4.19-3.86h-7.71l.89,1.56,3.86.81,1.48,2.64a3.63,3.63,0,0,0,2.43,1.77l1,.21Z" fill="#f1d2b6"/><path d="M99.23,209.23,85.89,205.3c.81-2.78,2.94-10,5.24-17.33a7.2,7.2,0,1,0-14-2.95l-4.11,27.17s13.17,6,25.35,3.2Z" fill="url(#da473498-5f2c-4e62-bc09-536c2816103c)"/><path d="M102.32,176.46,133,178.29a5.82,5.82,0,0,1,5.46,6.15h0s-11.52,6.71-32.28,7.16C87.6,192,102.32,176.46,102.32,176.46Z" fill="#00c1d5"/><path d="M91.07,178.8s2.68-4.29.79-11.11c-2.09-7.53,9.92,1.48,9.92,1.48l0,9.65Z" fill="#f1d2b6"/><path d="M100,173.86h0c4.5,0,8.19-1.88,8.2-6.39v-5.2a8.21,8.21,0,0,0-8.17-8.2h0a8.21,8.21,0,0,0-8.2,8.17v5.2C91.86,168,95.53,173.85,100,173.86Z" fill="#f1d2b6"/><path d="M107.72,157.94c1.31-1.43.52-1.81-1.23-2.63-2-.95-4.33-2.31-7.26-2.32A8.17,8.17,0,0,0,91,160.35a23.54,23.54,0,0,0,1,7.72h5.2a4.15,4.15,0,0,0,3.66-2.19l.21-.38c-.31-2.89,1-5,3.25-3l1.71-4Z" fill="#08786b"/><path d="M107.73,159.41a2.56,2.56,0,0,0,1.41-2.58c-.09-1.35-1.29-2.25-3.11-2.42-1.38-.12-2.19-1.09-4.22-1.55a9.08,9.08,0,0,0-6.49,1c-2.12,1,5.09,3.52,5.09,3.52l8,.24Z" fill="#1f2049"/><path d="M112.5,223.11,112.18,267l-.63,35.28a3.9,3.9,0,0,0,1.67,3.35l3.21,2.22a3.91,3.91,0,0,1,1.68,3.2h-16L100,268.81l-7.45-45.7Z" fill="url(#cc9be1cb-5e88-4af1-a9ee-a245d341a1ff)"/><path d="M101,222.05l-4.58,46.86L92.83,302.3c-.22,1.54.53,2.39,1.67,3.35l2.12,2a4.69,4.69,0,0,1,1.48,3.43H83.41L84,221.69Z" fill="url(#06fd53ed-84f9-4f43-9337-672d0d501f04)"/><path d="M81.12,179.16a390.22,390.22,0,0,1,2.92,44H112.5l-.35-32.77a13,13,0,0,0-13-13l-8-1.78Z" fill="#00c1d5"/><path d="M102.43,174.54l1,3.59c-4.64.15-15.27.3-15.27.3l2.76-4.67Z" fill="#00c1d5"/><path d="M111.51,161l-21.64.73s-1-9.1,7.73-11.38c7.52-2,11,3.61,11,3.61l1.06,4.48,1.9,1.67Z" fill="#ec7700"/><rect x="16.88" y="310.68" width="130.48" height="9.83" fill="#0091da"/><path d="M136.33,314.85v37.46l-33.69-35.49v-2H98.82v37.62L65.13,317v-2.13H61.3v37.77L27.61,317.13v-2.28H23.79v83.27h3.82V361.77L61.3,397.26v.86h3.83V361.61L98.82,397.1v1h3.82V361.46L136.33,397v1.17h3.83V314.85Zm-1.9,40.58H102.64V322Zm-37.66,0H65.13V322.1Zm-37.66,0H27.61V322.26ZM29.81,359H61.3v33.17Zm37.66,0H98.82v33Zm37.66,0h31.2v32.86Z" fill="url(#5da15f41-8b67-4142-ac13-feb53f77db3b)"/><path d="M118.11,164.39s16.28,11.84,19.54,16.68c-6.15,5.51-9.27,4.78-9.27,4.78l-12.9-17.78Z" fill="#00c1d5"/><path d="M54.8,221.69a192.92,192.92,0,0,1,8.59,42.2s-1.63,14.35-.24,26c.69,5.67,1.26,9.28,1.67,11.48a7.1,7.1,0,0,0,3.1,4.67l2.71,1.78a3.88,3.88,0,0,1,1.65,2.75l0,.37H57.89l.06-5.67a21.72,21.72,0,0,0-.39-4.26L54,282.88a24.75,24.75,0,0,1-.76-8.78l.83-8.63L41.61,242.42a51,51,0,0,1-1.38-20.68l6.38-10.17Z" fill="url(#532928f7-e600-4e1b-801f-e55d6fc09830)"/><path d="M47.05,226.72,49.85,266s-4.65,12.25-4.75,23.87a73.86,73.86,0,0,0,.77,12.64,6.08,6.08,0,0,0,2.8,4.17l1.81,1.12a3.35,3.35,0,0,1,1.29,2.75v.37H36.87l1.42-10.38-2.47-17.65a24.71,24.71,0,0,1,.37-8.78L39,265.47l-6.39-22.72c-2.92-8.89-2.63-13.54.74-21.11l6.79-10.07Z" fill="url(#252da24d-b2fb-45d8-b142-33a79fc6528a)"/><path d="M34,174.45s4.53,8.25-.73,12.15c2.37,1.28,11.5,2.39,11.5,2.39L44,177.36Z" fill="#f2c4a5"/><path d="M35.89,173.73c1,5.08,3.37,7.44,8.91,6.81,4.77-.55,5.52-4.72,5.05-10.14-.62-7.22-4.37-8-8.4-7.26S34.93,168.64,35.89,173.73Z" fill="#f2c4a5"/><circle cx="41.58" cy="171.07" r="8.27" fill="#f2c4a5"/><path d="M49.17,162.27s5.25,8.84-6.72,9.37a6.68,6.68,0,0,1-.87,3.35s0,3.22-6.13,3.22c-4.77-3.59-6-10.82-2.07-14.58C39.61,157.7,49.17,162.27,49.17,162.27Z" fill="url(#3677651f-4165-4b2c-8713-83bc75764a98)"/><path d="M56.72,181.25s7.9,13.91,9.19,16.5,2.23,8,2.23,8l-9.31-3.84-5-20.11Z" fill="#f2c4a5"/><path d="M50.19,183.6S33.94,186,30.33,187s-6.07,10.12-2.46,15.74,6.11,15.06,5.45,18.92l21.48.05c-1.32-4.68-.32-32.83-.32-32.83Z" fill="#ec7700"/><path d="M68.14,205.71l-18-22.11a9.61,9.61,0,0,0-3.44,11.51c3.58,10.07,18.43,16.27,18.43,16.27Z" fill="#ec7700"/><path d="M49.19,174.69,54,175.82l2.71,5.43-2.16,1.34a2.35,2.35,0,0,1-2.91-.34l-1.56-1.56.93-3.54L48.15,176Z" fill="#f2c4a5"/><path d="M32.47,164.69c-4.89,6.38-2.46,16.7-1.9,18.91,7.59,1.23,12.26-.65,12.26-.65l-1.25-8-6.88-6.92Z" fill="url(#e9d66009-3c71-4337-a702-95042453094b)"/><ellipse cx="42.77" cy="173.32" rx="2.08" ry="2.72" transform="translate(-31.59 11.03) rotate(-10.76)" fill="#f2c4a5"/><polygon points="64.85 194.67 60.49 196.29 62.96 199.33 67.52 197.97 64.85 194.67" fill="#ec7700"/><path d="M66.2,198.37l-3.24,1,5.18,6.38S67.84,200.64,66.2,198.37Z" fill="#ec7700"/></g></svg>