<svg viewBox="0 0 16 16" fill="none" xmlns="http://www.w3.org/2000/svg">
<path d="M8.52856 10.8784L8.06284 11.4662C7.39714 12.3023 6.79143 13.0733 6.30857 13.7025C6.02856 14.1043 5.41142 14.4529 4.78285 14.5563C4.64857 14.577 4.51999 14.5888 4.39428 14.5888C3.96857 14.5888 3.5857 14.4647 3.27142 14.2254C2.99141 13.995 2.77999 13.7734 2.61713 13.5489C2.31427 13.1235 2.20285 12.5829 2.29428 11.9832C2.39142 11.3304 2.7257 10.6893 3.12571 10.3909C3.83999 9.81783 4.68855 9.09702 5.58856 8.3319L5.85141 8.11034L6.25714 8.52983L5.95142 8.78979C5.04856 9.55491 4.19713 10.2787 3.46857 10.8636C3.2257 11.0468 2.94284 11.5165 2.85999 12.0718C2.81143 12.382 2.81143 12.8252 3.07714 13.1944C3.21142 13.3835 3.3857 13.5637 3.61999 13.7587C3.96571 14.0216 4.39714 14.0186 4.69427 13.9714C5.23142 13.8827 5.68285 13.5903 5.85427 13.3451C6.34571 12.704 6.95428 11.9271 7.62285 11.0911L8.11999 10.4589L8.51427 10.8665C8.51999 10.8725 8.52285 10.8754 8.52856 10.8784Z" fill="black"/>
<path d="M14.8371 4.36449L13.8571 6.9789C13.8429 7.0173 13.8229 7.05275 13.7943 7.07935C13.06 7.83855 11.9628 8.09556 10.9943 7.75288C10.8971 7.87991 10.7943 8.01285 10.6857 8.14875L10.02 8.99363L9.61428 8.57415L10.2457 7.77652C10.3686 7.61699 10.4828 7.46928 10.5943 7.32157L10.6771 7.21523C10.7571 7.10888 10.8971 7.07343 11.0143 7.12661C11.7971 7.48111 12.7257 7.31272 13.3486 6.70417L14.2371 4.33198L14.1857 4.2788L12.4571 6.06606C12.3457 6.18423 12.1629 6.18423 12.0514 6.06606L10.5029 4.46492C10.4514 4.41175 10.42 4.33493 10.42 4.25812C10.42 4.17837 10.4514 4.10452 10.5029 4.04839L12.2343 2.26112L11.7914 1.80323L9.50285 2.72198C8.79143 3.50186 8.71428 4.71603 9.32857 5.57272C9.41998 5.70271 9.39714 5.8829 9.27713 5.9804C8.91142 6.28172 8.50285 6.62144 8.07428 6.98186L7.66571 6.55942C8.03428 6.25217 8.38856 5.95676 8.71714 5.68498C8.09714 4.60081 8.25714 3.17396 9.13713 2.26112C9.16571 2.23158 9.19999 2.2109 9.23714 2.19613L11.76 1.18286C11.8657 1.1415 11.9828 1.1681 12.0657 1.2508L12.8429 2.05138C12.8943 2.10751 12.9257 2.18137 12.9257 2.26112C12.9257 2.33793 12.8943 2.41474 12.8429 2.47087L11.1086 4.25812L12.2543 5.43978L13.9828 3.65253C14.0943 3.53731 14.2771 3.53731 14.3857 3.65253L14.7714 4.04839C14.8543 4.1311 14.88 4.25517 14.8371 4.36449Z" fill="black"/>
<path d="M3.93613 6.0101C3.88562 6.0101 3.83484 5.99625 3.78908 5.96798L2.22184 4.99547C2.18166 4.97066 2.1479 4.93576 2.1239 4.89421L1.18361 3.27376C1.11609 3.1575 1.13395 3.00864 1.22658 2.91286L2.48049 1.61667C2.57312 1.52031 2.7171 1.503 2.82954 1.57224L4.39678 2.54445C4.43696 2.56927 4.47072 2.60417 4.49472 2.64572L5.43501 4.26617C5.50253 4.38243 5.48467 4.53129 5.39204 4.62707L4.13813 5.92355C4.08317 5.98038 4.00979 6.0101 3.93613 6.0101ZM2.57703 4.52696L3.89176 5.34282L4.83038 4.37233L4.04159 3.01296L2.72686 2.1974L1.78825 3.1676L2.57703 4.52696Z" fill="black"/>
<path d="M10.1743 9.56969C10.0628 9.68489 9.87999 9.68489 9.76855 9.56969L5.18855 4.83419L4.33998 5.71452L8.6857 10.2107C8.70285 10.2255 8.71713 10.2432 8.73141 10.258L8.91997 10.45C9.03141 10.5652 9.03141 10.7514 8.91997 10.8666C8.86284 10.9256 8.79142 10.9552 8.71713 10.9552C8.64856 10.9552 8.58283 10.9316 8.52855 10.8784C8.52284 10.8754 8.51998 10.8725 8.51426 10.8666L8.11998 10.4589L3.73427 5.92131C3.62284 5.8061 3.62284 5.62 3.73427 5.50478L4.9857 4.20791C5.03999 4.15178 5.11142 4.12225 5.18855 4.12225C5.26569 4.12225 5.33712 4.15178 5.39141 4.20791L10.1743 9.15315C10.2857 9.26836 10.2857 9.45448 10.1743 9.56969Z" fill="black"/>
<path d="M8.97684 12.7472C8.90374 12.7472 8.83064 12.7184 8.77483 12.6607L7.77902 11.6311C7.66741 11.5157 7.66741 11.3287 7.77902 11.2133L10.695 8.1983C10.8066 8.08291 10.9874 8.08291 11.0991 8.1983L12.0949 9.22793C12.2065 9.34332 12.2065 9.53027 12.0949 9.64566L9.17885 12.6607C9.12305 12.7184 9.04994 12.7472 8.97684 12.7472ZM8.38505 11.4222L8.97684 12.0341L11.4888 9.43679L10.897 8.8249L8.38505 11.4222Z" fill="black"/>
<path d="M12.9006 15.1273H12.8998C12.409 15.127 11.9481 14.9291 11.6013 14.5699L9.26699 12.1538C9.15567 12.0381 9.15567 11.8512 9.26727 11.7358C9.37888 11.621 9.55996 11.6207 9.67157 11.7361L12.0058 14.1525C12.2444 14.4 12.5622 14.5362 12.9001 14.5364H12.9006C13.2385 14.5364 13.5561 14.4003 13.7949 14.1533C14.0337 13.9061 14.1654 13.5778 14.1654 13.2281C14.1652 12.8788 14.0335 12.5502 13.7943 12.3035L11.457 9.89001C11.3454 9.77462 11.3454 9.58767 11.4567 9.47199C11.5683 9.35659 11.7494 9.35688 11.861 9.4717L14.1981 11.8852C14.5452 12.2438 14.7366 12.7204 14.7369 13.2279C14.7369 13.7353 14.546 14.2125 14.1989 14.5711C13.8521 14.9297 13.3912 15.127 12.9006 15.1273Z" fill="black"/>
</svg>
