<svg width="16" height="16" viewBox="0 0 16 16" fill="none" xmlns="http://www.w3.org/2000/svg">
<path d="M6.04178 1.58543C6.69694 1.58441 7.3442 1.72843 7.93711 2.00716C8.53002 2.28588 9.05389 2.69239 9.47111 3.19752C9.48594 3.2157 9.50422 3.23076 9.5249 3.24183C9.54558 3.25291 9.56825 3.25978 9.59159 3.26206C9.61494 3.26434 9.63851 3.26197 9.66094 3.2551C9.68336 3.24823 9.70421 3.23698 9.72227 3.22202C9.74034 3.20705 9.75526 3.18866 9.76618 3.1679C9.7771 3.14713 9.78381 3.12442 9.78591 3.10105C9.78801 3.07769 9.78547 3.05414 9.77843 3.03177C9.77139 3.00939 9.75999 2.98863 9.74489 2.97068C9.02223 2.09929 8.01538 1.51072 6.90153 1.30854C5.78768 1.10636 4.63821 1.30353 3.65541 1.86534C2.6726 2.42716 1.91945 3.31761 1.52848 4.38001C1.13752 5.44241 1.13381 6.60866 1.51799 7.67353C1.90218 8.73839 2.64964 9.63363 3.62885 10.2017C4.60806 10.7698 5.75625 10.9742 6.87136 10.7792C7.98648 10.5841 8.99706 10.0019 9.72525 9.13518C10.4534 8.26842 10.8526 7.17259 10.8524 6.04054V6.03876C10.8522 5.99162 10.8333 5.94649 10.7997 5.91332C10.7662 5.88014 10.7209 5.86164 10.6738 5.86188C10.6266 5.86211 10.5815 5.88107 10.5483 5.91457C10.5152 5.94808 10.4967 5.99339 10.4969 6.04054C10.4971 6.92193 10.2359 7.78358 9.74629 8.5165C9.25672 9.24942 8.5608 9.82069 7.74654 10.1581C6.93227 10.4954 6.03625 10.5838 5.17178 10.4119C4.30732 10.2399 3.51326 9.81554 2.89002 9.1923C2.26678 8.56906 1.84237 7.775 1.67047 6.91054C1.49856 6.04607 1.58688 5.15005 1.92425 4.33578C2.26163 3.52152 2.8329 2.8256 3.56582 2.33603C4.29874 1.84647 5.16039 1.58526 6.04178 1.58543Z" fill="black"/>
<path d="M13.0748 11.2445L12.643 10.8126C12.5695 10.7392 12.4698 10.698 12.366 10.698C12.2621 10.698 12.1624 10.7392 12.0889 10.8126L12.04 10.8614L11.1422 9.96518C11.0483 9.86939 10.9895 9.74463 10.9754 9.61119C10.9614 9.47775 10.9929 9.34349 11.0649 9.23024C11.6728 8.2778 11.9947 7.17099 11.9925 6.04109C11.9922 5.67972 11.959 5.31914 11.8935 4.96376C11.8901 4.94012 11.8819 4.91742 11.8695 4.89701C11.857 4.8766 11.8406 4.85891 11.8212 4.84498C11.8018 4.83106 11.7798 4.82118 11.7565 4.81596C11.7332 4.81073 11.7091 4.81025 11.6856 4.81455C11.6621 4.81886 11.6397 4.82785 11.6197 4.841C11.5998 4.85415 11.5827 4.87118 11.5695 4.89108C11.5563 4.91098 11.5472 4.93334 11.5428 4.95682C11.5385 4.9803 11.5388 5.00443 11.544 5.02776C11.6054 5.36204 11.6366 5.7012 11.637 6.04109C11.6393 7.10307 11.337 8.14342 10.7659 9.03878C10.6507 9.22042 10.6004 9.43569 10.6232 9.64956C10.646 9.86342 10.7405 10.0633 10.8914 10.2166L11.7892 11.1127L11.1136 11.7883L10.2174 10.8921C10.0655 10.7396 9.86584 10.6438 9.65178 10.6209C9.43772 10.5981 9.2223 10.6494 9.0416 10.7664C8.14492 11.3362 7.10417 11.6381 6.04178 11.6365H6.03858C5.29609 11.632 4.56182 11.4806 3.87809 11.1911C3.19436 10.9015 2.57468 10.4796 2.05477 9.94948C1.53485 9.41938 1.12497 8.79164 0.848749 8.10243C0.572527 7.41321 0.435422 6.67615 0.445333 5.93371C0.464752 4.80042 0.828561 3.69986 1.48842 2.77828C2.14828 1.8567 3.07294 1.15772 4.13955 0.774217C5.20616 0.390718 6.36422 0.340855 7.45984 0.631255C8.55547 0.921654 9.53679 1.53857 10.2734 2.40002C10.2879 2.41978 10.3063 2.43633 10.3275 2.44863C10.3487 2.46093 10.3722 2.46872 10.3966 2.4715C10.4209 2.47429 10.4456 2.47201 10.469 2.46481C10.4924 2.45762 10.5141 2.44565 10.5327 2.42968C10.5513 2.4137 10.5663 2.39406 10.577 2.37198C10.5876 2.34991 10.5935 2.32587 10.5944 2.30138C10.5953 2.2769 10.5912 2.25249 10.5822 2.22969C10.5732 2.20689 10.5596 2.1862 10.5422 2.16891C9.89194 1.41698 9.06326 0.840354 8.13221 0.491914C7.20115 0.143474 6.19752 0.0343745 5.21334 0.17462C4.22916 0.314866 3.29595 0.699969 2.49928 1.29461C1.70262 1.88925 1.068 2.6744 0.653633 3.57804C0.239266 4.48169 0.0584124 5.47491 0.127658 6.46661C0.196904 7.45832 0.514032 8.41676 1.04996 9.25405C1.58589 10.0913 2.32346 10.7807 3.19503 11.2588C4.06661 11.737 5.04428 11.9887 6.0384 11.9908H6.04178C7.17181 11.9924 8.2788 11.6712 9.23253 11.0651C9.34507 10.9919 9.47936 10.9596 9.61288 10.9736C9.7464 10.9877 9.87103 11.0472 9.96587 11.1422L10.8622 12.0384L10.8128 12.0878C10.7763 12.1242 10.7474 12.1674 10.7276 12.2149C10.7079 12.2625 10.6977 12.3134 10.6977 12.3649C10.6977 12.4164 10.7079 12.4674 10.7276 12.5149C10.7474 12.5625 10.7763 12.6056 10.8128 12.642L13.9664 15.7961C14.04 15.8694 14.1396 15.9105 14.2435 15.9105C14.3473 15.9105 14.4469 15.8694 14.5205 15.7961L15.7963 14.5202C15.8327 14.4839 15.8617 14.4407 15.8814 14.3931C15.9012 14.3456 15.9113 14.2946 15.9113 14.2431C15.9113 14.1917 15.9012 14.1407 15.8814 14.0931C15.8617 14.0456 15.8327 14.0024 15.7963 13.9661L13.0748 11.2445ZM11.0532 12.3645C11.0531 12.3597 11.054 12.3549 11.0559 12.3505C11.0577 12.3461 11.0604 12.342 11.0638 12.3387L11.2372 12.1654L11.2395 12.1639L12.1657 11.2377L12.1673 11.2354L12.3397 11.063C12.3431 11.0595 12.347 11.0567 12.3515 11.0548C12.3559 11.053 12.3606 11.052 12.3654 11.052C12.3702 11.052 12.375 11.053 12.3794 11.0548C12.3838 11.0567 12.3878 11.0595 12.3911 11.063L12.6976 11.3693L11.3703 12.6966L11.0638 12.3911C11.0604 12.3877 11.0576 12.3837 11.0558 12.3792C11.054 12.3747 11.0531 12.3699 11.0532 12.365V12.3645ZM15.5451 14.2686L14.2695 15.5446C14.2626 15.5513 14.2534 15.5551 14.2437 15.5551C14.2341 15.5551 14.2248 15.5513 14.218 15.5446L11.6224 12.949L12.9497 11.6217L15.5452 14.2173C15.5486 14.2206 15.5513 14.2246 15.5531 14.229C15.5549 14.2334 15.5558 14.2381 15.5557 14.2429C15.5558 14.2477 15.5549 14.2524 15.553 14.2568C15.5512 14.2613 15.5485 14.2653 15.5451 14.2686Z" fill="black"/>
<path d="M14.0156 1.57551C14.0157 1.39962 13.9636 1.22767 13.8659 1.08141C13.7682 0.935157 13.6293 0.821173 13.4668 0.753889C13.3043 0.686605 13.1255 0.669046 12.953 0.703434C12.7805 0.737821 12.6221 0.82261 12.4978 0.947068L6.3328 7.1124L4.88142 5.66102C4.79928 5.57676 4.70122 5.50964 4.59294 5.46357C4.48465 5.4175 4.3683 5.39339 4.25062 5.39263C4.13294 5.39188 4.01629 5.4145 3.90742 5.45918C3.79856 5.50386 3.69965 5.56971 3.61643 5.65292C3.53321 5.73612 3.46735 5.83502 3.42265 5.94388C3.37795 6.05274 3.35532 6.1694 3.35605 6.28707C3.35679 6.40475 3.38089 6.52111 3.42694 6.6294C3.473 6.73769 3.5401 6.83576 3.62436 6.91791L5.70436 8.99791C5.87105 9.16461 6.09714 9.25825 6.33289 9.25825C6.56863 9.25825 6.79472 9.16461 6.96142 8.99791L13.7552 2.20449C13.8381 2.12209 13.9037 2.02406 13.9484 1.9161C13.9932 1.80813 14.016 1.69237 14.0156 1.57551ZM13.5038 1.95258L6.70987 8.74671C6.6083 8.84371 6.47325 8.89784 6.3328 8.89784C6.19235 8.89784 6.0573 8.84371 5.95573 8.74671L3.87556 6.66671C3.82462 6.61751 3.78399 6.55866 3.75603 6.49359C3.72808 6.42853 3.71337 6.35854 3.71276 6.28773C3.71214 6.21691 3.72563 6.14668 3.75245 6.08114C3.77927 6.01559 3.81887 5.95604 3.86895 5.90597C3.91902 5.85589 3.97857 5.81629 4.04411 5.78947C4.10966 5.76266 4.17989 5.74916 4.2507 5.74978C4.32152 5.75039 4.3915 5.76511 4.45657 5.79306C4.52164 5.82101 4.58049 5.86164 4.62969 5.91258L6.20693 7.48965C6.24027 7.52297 6.28548 7.5417 6.33262 7.5417C6.37976 7.5417 6.42497 7.52297 6.45831 7.48965L12.7497 1.19845C12.8512 1.1014 12.9863 1.04725 13.1268 1.04725C13.2672 1.04725 13.4023 1.1014 13.5038 1.19845C13.6038 1.29845 13.6599 1.43405 13.6599 1.57542C13.6599 1.7168 13.6038 1.85257 13.5038 1.95258Z" fill="black"/>
</svg>
